<svg width="1543" height="95" viewBox="0 0 1543 95" fill="none" xmlns="http://www.w3.org/2000/svg">
<rect width="1543" height="95" fill="url(#paint0_linear_2_73)"/>
<path d="M32.6477 38.5455V40.4205H24.2273V56H22.1136V38.5455H32.6477ZM34.4183 56V54.0568H34.9297C35.657 54.0568 36.2223 53.8239 36.6257 53.358C37.0291 52.892 37.3189 52.1392 37.495 51.0994C37.6768 50.0597 37.799 48.6818 37.8615 46.9659L38.1683 38.5455H48.8047V56H46.6911V40.4205H40.1797L39.907 47.375C39.8388 49.2045 39.6712 50.7614 39.4041 52.0455C39.1371 53.3295 38.6683 54.3097 37.9979 54.9858C37.3274 55.6619 36.3501 56 35.0661 56H34.4183ZM53.7436 56H51.5277L57.9368 38.5455H60.1186L66.5277 56H64.3118L59.0959 41.3068H58.9595L53.7436 56ZM54.5618 49.1818H63.4936V51.0568H54.5618V49.1818ZM69.2464 56V38.5455H75.3487C76.5646 38.5455 77.5675 38.7557 78.3572 39.1761C79.147 39.5909 79.7351 40.1506 80.1214 40.8551C80.5078 41.554 80.701 42.3295 80.701 43.1818C80.701 43.9318 80.5675 44.5511 80.3004 45.0398C80.0391 45.5284 79.6925 45.9148 79.2607 46.1989C78.8345 46.483 78.3714 46.6932 77.8714 46.8295V47C78.4055 47.0341 78.9425 47.2216 79.4822 47.5625C80.022 47.9034 80.4737 48.392 80.8374 49.0284C81.201 49.6648 81.3828 50.4432 81.3828 51.3636C81.3828 52.2386 81.1839 53.0256 80.7862 53.7244C80.3885 54.4233 79.7607 54.9773 78.9027 55.3864C78.0447 55.7955 76.9283 56 75.5533 56H69.2464ZM71.3601 54.125H75.5533C76.9339 54.125 77.9141 53.858 78.4936 53.3239C79.0788 52.7841 79.3714 52.1307 79.3714 51.3636C79.3714 50.7727 79.2209 50.2273 78.9197 49.7273C78.6186 49.2216 78.1896 48.8182 77.6328 48.517C77.076 48.2102 76.4169 48.0568 75.6555 48.0568H71.3601V54.125ZM71.3601 46.2159H75.2805C75.9169 46.2159 76.4908 46.0909 77.0021 45.8409C77.5192 45.5909 77.9283 45.2386 78.2294 44.7841C78.5362 44.3295 78.6896 43.7955 78.6896 43.1818C78.6896 42.4148 78.4226 41.7642 77.8885 41.2301C77.3544 40.6903 76.5078 40.4205 75.3487 40.4205H71.3601V46.2159ZM84.8558 56V38.5455H86.9695V46.3182H96.2763V38.5455H98.3899V56H96.2763V48.1932H86.9695V56H84.8558ZM103.337 56H101.121L107.531 38.5455H109.712L116.121 56H113.906L108.69 41.3068H108.553L103.337 56ZM104.156 49.1818H113.087V51.0568H104.156V49.1818ZM130.704 56H128.59V40.4205H124.874C123.931 40.4205 123.173 40.5653 122.599 40.8551C122.025 41.1392 121.607 41.5426 121.346 42.0653C121.085 42.5881 120.954 43.1989 120.954 43.8977C120.954 44.5966 121.082 45.1989 121.337 45.7045C121.599 46.2045 122.013 46.5909 122.582 46.8636C123.156 47.1364 123.908 47.2727 124.84 47.2727H129.545V49.1818H124.772C123.42 49.1818 122.309 48.9574 121.44 48.5085C120.57 48.054 119.925 47.429 119.505 46.6335C119.085 45.8381 118.874 44.9261 118.874 43.8977C118.874 42.8693 119.085 41.9517 119.505 41.1449C119.925 40.3381 120.573 39.7045 121.448 39.2443C122.323 38.7784 123.442 38.5455 124.806 38.5455H130.704V56ZM122.488 48.1591H124.874L120.647 56H118.192L122.488 48.1591Z" fill="black"/>
<path d="M180.375 56L174.375 47.9886H172.227V56H170.114V38.5455H172.227V46.1136H173.148L180.136 38.5455H182.659L175.602 46.2159L182.898 56H180.375ZM199.536 47.2727C199.536 49.1136 199.204 50.7045 198.539 52.0455C197.874 53.3864 196.962 54.4205 195.803 55.1477C194.644 55.875 193.32 56.2386 191.832 56.2386C190.343 56.2386 189.019 55.875 187.86 55.1477C186.701 54.4205 185.789 53.3864 185.124 52.0455C184.46 50.7045 184.127 49.1136 184.127 47.2727C184.127 45.4318 184.46 43.8409 185.124 42.5C185.789 41.1591 186.701 40.125 187.86 39.3977C189.019 38.6705 190.343 38.3068 191.832 38.3068C193.32 38.3068 194.644 38.6705 195.803 39.3977C196.962 40.125 197.874 41.1591 198.539 42.5C199.204 43.8409 199.536 45.4318 199.536 47.2727ZM197.491 47.2727C197.491 45.7614 197.238 44.4858 196.732 43.446C196.232 42.4062 195.553 41.6193 194.695 41.0852C193.843 40.5511 192.888 40.2841 191.832 40.2841C190.775 40.2841 189.817 40.5511 188.96 41.0852C188.107 41.6193 187.428 42.4062 186.923 43.446C186.423 44.4858 186.173 45.7614 186.173 47.2727C186.173 48.7841 186.423 50.0597 186.923 51.0994C187.428 52.1392 188.107 52.9261 188.96 53.4602C189.817 53.9943 190.775 54.2614 191.832 54.2614C192.888 54.2614 193.843 53.9943 194.695 53.4602C195.553 52.9261 196.232 52.1392 196.732 51.0994C197.238 50.0597 197.491 48.7841 197.491 47.2727ZM203.09 56V38.5455H205.204V46.3182H214.511V38.5455H216.624V56H214.511V48.1932H205.204V56H203.09ZM219.901 40.4205V38.5455H232.992V40.4205H227.504V56H225.39V40.4205H219.901ZM234.931 56H232.715L239.124 38.5455H241.306L247.715 56H245.499L240.283 41.3068H240.147L234.931 56ZM235.749 49.1818H244.681V51.0568H235.749V49.1818ZM260.695 56L254.695 47.9886H252.548V56H250.434V38.5455H252.548V46.1136H253.468L260.457 38.5455H262.979L255.923 46.2159L263.218 56H260.695ZM264.995 40.4205V38.5455H278.086V40.4205H272.597V56H270.484V40.4205H264.995ZM282.916 45.875H287.893C289.143 45.875 290.197 46.0795 291.055 46.4886C291.919 46.8977 292.572 47.4744 293.016 48.2188C293.464 48.9631 293.689 49.8409 293.689 50.8523C293.689 51.8636 293.464 52.7557 293.016 53.5284C292.572 54.3011 291.919 54.9062 291.055 55.3438C290.197 55.7812 289.143 56 287.893 56H281.348V38.5455H283.462V54.1591H287.893C288.689 54.1591 289.362 54 289.913 53.6818C290.47 53.358 290.891 52.9432 291.175 52.4375C291.464 51.9261 291.609 51.3864 291.609 50.8182C291.609 49.983 291.288 49.2642 290.646 48.6619C290.004 48.054 289.087 47.75 287.893 47.75H282.916V45.875ZM297.507 38.5455V56H295.393V38.5455H297.507Z" fill="black"/>
<path d="M351.841 47.2727C351.841 49.1136 351.509 50.7045 350.844 52.0455C350.179 53.3864 349.267 54.4205 348.108 55.1477C346.949 55.875 345.625 56.2386 344.136 56.2386C342.648 56.2386 341.324 55.875 340.165 55.1477C339.006 54.4205 338.094 53.3864 337.429 52.0455C336.764 50.7045 336.432 49.1136 336.432 47.2727C336.432 45.4318 336.764 43.8409 337.429 42.5C338.094 41.1591 339.006 40.125 340.165 39.3977C341.324 38.6705 342.648 38.3068 344.136 38.3068C345.625 38.3068 346.949 38.6705 348.108 39.3977C349.267 40.125 350.179 41.1591 350.844 42.5C351.509 43.8409 351.841 45.4318 351.841 47.2727ZM349.795 47.2727C349.795 45.7614 349.543 44.4858 349.037 43.446C348.537 42.4062 347.858 41.6193 347 41.0852C346.148 40.5511 345.193 40.2841 344.136 40.2841C343.08 40.2841 342.122 40.5511 341.264 41.0852C340.412 41.6193 339.733 42.4062 339.227 43.446C338.727 44.4858 338.477 45.7614 338.477 47.2727C338.477 48.7841 338.727 50.0597 339.227 51.0994C339.733 52.1392 340.412 52.9261 341.264 53.4602C342.122 53.9943 343.08 54.2614 344.136 54.2614C345.193 54.2614 346.148 53.9943 347 53.4602C347.858 52.9261 348.537 52.1392 349.037 51.0994C349.543 50.0597 349.795 48.7841 349.795 47.2727ZM355.395 56V38.5455H365.929V40.4205H357.509V45.875H361.94C363.19 45.875 364.244 46.0795 365.102 46.4886C365.966 46.8977 366.619 47.4744 367.062 48.2188C367.511 48.9631 367.736 49.8409 367.736 50.8523C367.736 51.8636 367.511 52.7557 367.062 53.5284C366.619 54.3011 365.966 54.9062 365.102 55.3438C364.244 55.7812 363.19 56 361.94 56H355.395ZM357.509 54.1591H361.94C362.736 54.1591 363.409 54 363.96 53.6818C364.517 53.358 364.938 52.9432 365.222 52.4375C365.511 51.9261 365.656 51.3864 365.656 50.8182C365.656 49.983 365.335 49.2642 364.693 48.6619C364.051 48.054 363.134 47.75 361.94 47.75H357.509V54.1591ZM378.681 56H376.465L382.874 38.5455H385.056L391.465 56H389.249L384.033 41.3068H383.897L378.681 56ZM379.499 49.1818H388.431V51.0568H379.499V49.1818ZM394.184 56V38.5455H400.286C401.502 38.5455 402.505 38.7557 403.295 39.1761C404.085 39.5909 404.673 40.1506 405.059 40.8551C405.445 41.554 405.638 42.3295 405.638 43.1818C405.638 43.9318 405.505 44.5511 405.238 45.0398C404.977 45.5284 404.63 45.9148 404.198 46.1989C403.772 46.483 403.309 46.6932 402.809 46.8295V47C403.343 47.0341 403.88 47.2216 404.42 47.5625C404.96 47.9034 405.411 48.392 405.775 49.0284C406.138 49.6648 406.32 50.4432 406.32 51.3636C406.32 52.2386 406.121 53.0256 405.724 53.7244C405.326 54.4233 404.698 54.9773 403.84 55.3864C402.982 55.7955 401.866 56 400.491 56H394.184ZM396.298 54.125H400.491C401.871 54.125 402.852 53.858 403.431 53.3239C404.016 52.7841 404.309 52.1307 404.309 51.3636C404.309 50.7727 404.158 50.2273 403.857 49.7273C403.556 49.2216 403.127 48.8182 402.57 48.517C402.013 48.2102 401.354 48.0568 400.593 48.0568H396.298V54.125ZM396.298 46.2159H400.218C400.854 46.2159 401.428 46.0909 401.94 45.8409C402.457 45.5909 402.866 45.2386 403.167 44.7841C403.474 44.3295 403.627 43.7955 403.627 43.1818C403.627 42.4148 403.36 41.7642 402.826 41.2301C402.292 40.6903 401.445 40.4205 400.286 40.4205H396.298V46.2159ZM408.839 40.4205V38.5455H421.93V40.4205H416.441V56H414.327V40.4205H408.839ZM439.192 47.2727C439.192 49.1136 438.86 50.7045 438.195 52.0455C437.531 53.3864 436.619 54.4205 435.46 55.1477C434.3 55.875 432.977 56.2386 431.488 56.2386C429.999 56.2386 428.675 55.875 427.516 55.1477C426.357 54.4205 425.445 53.3864 424.781 52.0455C424.116 50.7045 423.783 49.1136 423.783 47.2727C423.783 45.4318 424.116 43.8409 424.781 42.5C425.445 41.1591 426.357 40.125 427.516 39.3977C428.675 38.6705 429.999 38.3068 431.488 38.3068C432.977 38.3068 434.3 38.6705 435.46 39.3977C436.619 40.125 437.531 41.1591 438.195 42.5C438.86 43.8409 439.192 45.4318 439.192 47.2727ZM437.147 47.2727C437.147 45.7614 436.894 44.4858 436.388 43.446C435.888 42.4062 435.21 41.6193 434.352 41.0852C433.499 40.5511 432.545 40.2841 431.488 40.2841C430.431 40.2841 429.474 40.5511 428.616 41.0852C427.763 41.6193 427.085 42.4062 426.579 43.446C426.079 44.4858 425.829 45.7614 425.829 47.2727C425.829 48.7841 426.079 50.0597 426.579 51.0994C427.085 52.1392 427.763 52.9261 428.616 53.4602C429.474 53.9943 430.431 54.2614 431.488 54.2614C432.545 54.2614 433.499 53.9943 434.352 53.4602C435.21 52.9261 435.888 52.1392 436.388 51.0994C436.894 50.0597 437.147 48.7841 437.147 47.2727ZM442.746 56V38.5455H448.644C450.013 38.5455 451.133 38.7926 452.002 39.2869C452.877 39.7756 453.525 40.4375 453.945 41.2727C454.366 42.108 454.576 43.0398 454.576 44.0682C454.576 45.0966 454.366 46.0312 453.945 46.8722C453.531 47.7131 452.888 48.3835 452.019 48.8835C451.15 49.3778 450.036 49.625 448.678 49.625H444.451V47.75H448.61C449.548 47.75 450.3 47.5881 450.869 47.2642C451.437 46.9403 451.849 46.5028 452.104 45.9517C452.366 45.3949 452.496 44.767 452.496 44.0682C452.496 43.3693 452.366 42.7443 452.104 42.1932C451.849 41.642 451.434 41.2102 450.86 40.8977C450.286 40.5795 449.525 40.4205 448.576 40.4205H444.86V56H442.746ZM457.981 56V38.5455H468.515V40.4205H460.094V46.3182H467.969V48.1932H460.094V54.125H468.651V56H457.981Z" fill="black"/>
<defs>
<linearGradient id="paint0_linear_2_73" x1="771.5" y1="0" x2="771.5" y2="95" gradientUnits="userSpaceOnUse">
<stop stop-color="#FF0000" stop-opacity="0.5"/>
<stop offset="1" stop-color="#2144FF" stop-opacity="0.5"/>
</linearGradient>
</defs>
</svg>
